<?xml version="1.0" encoding="utf-8"?>
<!-- Generator: Adobe Illustrator 16.0.0, SVG Export Plug-In . SVG Version: 6.00 Build 0)  -->
<!DOCTYPE svg PUBLIC "-//W3C//DTD SVG 1.1//EN" "http://www.w3.org/Graphics/SVG/1.1/DTD/svg11.dtd">
<svg version="1.1" id="Layer_1" xmlns="http://www.w3.org/2000/svg" xmlns:xlink="http://www.w3.org/1999/xlink" x="0px" y="0px"
	 width="67.104px" height="66.239px" viewBox="0 0 67.104 66.239" enable-background="new 0 0 67.104 66.239" xml:space="preserve">
<polygon fill="#6269B1" points="57.062,0 67.104,33.12 57.062,66.239 0,66.239 0,0 "/>
<g>
	<g>
		<path fill="#ACDDDA" d="M32.735,25.905c-3.116,0-5.651,2.535-5.651,5.651c0,1.383,0.501,2.65,1.329,3.633l-1.004,1.005
			l-0.574-0.574c-0.19-0.189-0.498-0.189-0.688,0l-4.211,4.211c-0.337,0.337-0.523,0.786-0.523,1.263s0.186,0.926,0.523,1.262
			c0.337,0.338,0.785,0.523,1.262,0.523c0.477,0,0.925-0.186,1.262-0.523l4.211-4.211c0.091-0.091,0.143-0.215,0.143-0.344
			s-0.051-0.253-0.143-0.344l-0.574-0.574l1.004-1.004c0.983,0.828,2.25,1.328,3.634,1.328c3.116,0,5.651-2.534,5.651-5.65
			S35.852,25.905,32.735,25.905z M23.772,41.667c-0.307,0.307-0.841,0.307-1.148,0c-0.153-0.154-0.238-0.357-0.238-0.574
			s0.084-0.421,0.238-0.574l3.867-3.867l1.148,1.148L23.772,41.667z M32.735,36.234c-2.58,0-4.678-2.098-4.678-4.678
			c0-2.58,2.098-4.678,4.678-4.678c2.579,0,4.678,2.099,4.678,4.678C37.413,34.136,35.314,36.234,32.735,36.234z"/>
		<path fill="#ACDDDA" d="M36.357,31.07c-0.269,0-0.486,0.218-0.486,0.486c0,1.729-1.407,3.136-3.136,3.136
			c-0.269,0-0.487,0.218-0.487,0.486s0.218,0.486,0.487,0.486c2.266,0,4.108-1.843,4.108-4.108
			C36.844,31.288,36.626,31.07,36.357,31.07z"/>
	</g>
</g>
</svg>
