<?xml version="1.0" encoding="utf-8"?>
<!-- Generator: Adobe Illustrator 16.0.0, SVG Export Plug-In . SVG Version: 6.00 Build 0)  -->
<!DOCTYPE svg PUBLIC "-//W3C//DTD SVG 1.1//EN" "http://www.w3.org/Graphics/SVG/1.1/DTD/svg11.dtd">
<svg version="1.1" id="Layer_1" xmlns="http://www.w3.org/2000/svg" xmlns:xlink="http://www.w3.org/1999/xlink" x="0px" y="0px"
	 width="21.032px" height="21.031px" viewBox="0 0 21.032 21.031" enable-background="new 0 0 21.032 21.031" xml:space="preserve">
<g>
	<g>
		<path fill="#9CD9D9" d="M10.516,0C4.717,0,0,4.717,0,10.516s4.717,10.516,10.516,10.516c5.799,0,10.517-4.717,10.517-10.516
			S16.314,0,10.516,0z M10.516,20c-5.229,0-9.484-4.255-9.484-9.484s4.254-9.484,9.484-9.484S20,5.286,20,10.516
			S15.745,20,10.516,20z"/>
		<path fill="#9CD9D9" d="M14.683,10h-3.651V6.349c0-0.285-0.231-0.516-0.516-0.516S10,6.063,10,6.349V10H6.349
			c-0.285,0-0.516,0.23-0.516,0.516s0.231,0.516,0.516,0.516H10v3.651c0,0.285,0.23,0.516,0.516,0.516s0.516-0.23,0.516-0.516
			v-3.651h3.651c0.285,0,0.516-0.23,0.516-0.516S14.968,10,14.683,10z"/>
	</g>
</g>
</svg>
