<?xml version="1.0" encoding="utf-8"?>
<!-- Generator: Adobe Illustrator 16.0.0, SVG Export Plug-In . SVG Version: 6.00 Build 0)  -->
<!DOCTYPE svg PUBLIC "-//W3C//DTD SVG 1.1//EN" "http://www.w3.org/Graphics/SVG/1.1/DTD/svg11.dtd">
<svg version="1.1" id="Layer_1" xmlns="http://www.w3.org/2000/svg" xmlns:xlink="http://www.w3.org/1999/xlink" x="0px" y="0px"
	 width="15.246px" height="16.975px" viewBox="0 0 15.246 16.975" enable-background="new 0 0 15.246 16.975" xml:space="preserve">
<path fill="#FFFFFF" d="M14.114,5.521c-0.463-3.306-1.637-4.32-3.256-4.797c-0.012-0.003-0.021-0.01-0.033-0.014
	c-0.006-0.001-0.012-0.001-0.018-0.002c-0.006-0.002-0.011-0.004-0.018-0.006C8.901,0.168,5.008-0.101,4.234,0.034
	C3.851,0.101,3.51,0.246,3.221,0.464c-0.565,0.428-0.789,1.158-0.57,1.86c0.125,0.401,0.39,0.705,0.711,0.893
	C3.331,3.371,3.298,3.529,3.27,3.68C3.085,4.664,2.91,5.594,2.117,7.183L1.703,8c-1.147,2.243-1.976,3.864-1.62,7.163
	c0.023,0.217,0.188,0.392,0.403,0.429l8.024,1.378c0.027,0.004,0.055,0.006,0.082,0.006c0,0,0,0,0,0c0.004,0,0.009,0,0.013,0
	c3.367-0.088,6.352-2.717,6.477-2.828c0.121-0.107,0.181-0.27,0.159-0.43C15.242,13.717,14.546,8.606,14.114,5.521z M3.811,1.243
	C3.977,1.117,4.17,1.037,4.401,0.996C4.835,0.922,6.939,1.03,8.744,1.291C8.35,1.72,8.212,2.321,8.382,2.902
	C6.903,2.741,4.736,2.508,4.044,2.443C3.73,2.429,3.611,2.126,3.583,2.034C3.511,1.803,3.527,1.457,3.811,1.243z M1.02,14.692
	c-0.229-2.763,0.489-4.166,1.553-6.248l0.418-0.825c0.854-1.711,1.05-2.752,1.239-3.759C4.254,3.727,4.284,3.586,4.311,3.45
	c1.264,0.127,4.385,0.468,5.214,0.559C9.53,4.009,9.535,4.009,9.54,4.01c0.119,0.013,0.189,0.021,0.189,0.021l0.003-0.019
	c0.1,0.004,0.196,0.019,0.3,0.003c0.267-0.042,0.449-0.291,0.408-0.558c-0.042-0.266-0.292-0.45-0.559-0.407
	C9.8,3.063,9.728,3.058,9.665,3.042c-0.001,0-0.002,0-0.003,0C9.475,2.99,9.376,2.829,9.329,2.72C9.22,2.461,9.235,2.081,9.53,1.857
	c0.312-0.234,0.671-0.308,1.013-0.211c0.004,0.001,0.008,0.002,0.013,0.004c0.331,0.1,0.594,0.354,0.719,0.697
	c0.365,1-1.098,4.192-1.972,6.1c-0.426,0.93-0.794,1.732-0.948,2.225c-0.511,1.641-0.629,3.353-0.357,5.217L1.02,14.692z
	 M9.012,15.954c-0.288-1.795-0.209-3.437,0.275-4.99c0.136-0.434,0.491-1.21,0.903-2.109c1.154-2.519,2.049-4.611,2.097-5.995
	c0.37,0.581,0.671,1.449,0.859,2.797c0.372,2.663,0.942,6.834,1.091,7.924C13.587,14.107,11.397,15.714,9.012,15.954z"/>
</svg>
