<?xml version="1.0" encoding="utf-8"?>
<!-- Generator: Adobe Illustrator 16.0.0, SVG Export Plug-In . SVG Version: 6.00 Build 0)  -->
<!DOCTYPE svg PUBLIC "-//W3C//DTD SVG 1.1//EN" "http://www.w3.org/Graphics/SVG/1.1/DTD/svg11.dtd">
<svg version="1.1" id="Layer_1" xmlns="http://www.w3.org/2000/svg" xmlns:xlink="http://www.w3.org/1999/xlink" x="0px" y="0px"
	 width="17.032px" height="13.87px" viewBox="0 0 17.032 13.87" enable-background="new 0 0 17.032 13.87" xml:space="preserve">
<g>
	<path fill="#FFFFFF" d="M16.516,12.838H9.032v-2.189h7.484c0.285,0,0.517-0.231,0.517-0.517s-0.231-0.516-0.517-0.516h-0.399
		C15.961,5.73,12.89,2.591,9.032,2.331V1.032h0.482c0.285,0,0.516-0.23,0.516-0.516S9.799,0,9.514,0H7.518
		C7.232,0,7.001,0.231,7.001,0.517s0.231,0.516,0.516,0.516H8v1.299C4.143,2.591,1.07,5.73,0.916,9.616h-0.4
		C0.23,9.616,0,9.847,0,10.132s0.23,0.517,0.516,0.517H8v2.189H0.516C0.23,12.838,0,13.069,0,13.354s0.23,0.516,0.516,0.516h16
		c0.285,0,0.517-0.23,0.517-0.516S16.801,12.838,16.516,12.838z M8.516,3.337c3.527,0,6.407,2.791,6.568,6.279H1.948
		C2.108,6.128,4.988,3.337,8.516,3.337z"/>
	<path fill="#FFFFFF" d="M13.683,7.688c-0.663-1.534-1.961-2.687-3.561-3.162C9.85,4.443,9.562,4.601,9.481,4.873
		C9.4,5.146,9.556,5.434,9.829,5.515c1.305,0.389,2.365,1.33,2.906,2.583c0.085,0.195,0.275,0.312,0.475,0.312
		c0.068,0,0.138-0.014,0.204-0.043C13.676,8.253,13.796,7.949,13.683,7.688z"/>
</g>
</svg>
