<?xml version="1.0" encoding="utf-8"?>
<!-- Generator: Adobe Illustrator 16.0.0, SVG Export Plug-In . SVG Version: 6.00 Build 0)  -->
<!DOCTYPE svg PUBLIC "-//W3C//DTD SVG 1.1//EN" "http://www.w3.org/Graphics/SVG/1.1/DTD/svg11.dtd">
<svg version="1.1" id="Layer_1" xmlns="http://www.w3.org/2000/svg" xmlns:xlink="http://www.w3.org/1999/xlink" x="0px" y="0px"
	 width="17px" height="10.767px" viewBox="247.5 156.755 17 10.767" enable-background="new 247.5 156.755 17 10.767"
	 xml:space="preserve">
<path d="M250.9,167.522c-1.875,0-3.4-1.525-3.4-3.4s1.525-3.4,3.4-3.4c1.875,0,3.4,1.525,3.4,3.4S252.775,167.522,250.9,167.522z
	 M250.9,161.289c-1.562,0-2.833,1.271-2.833,2.833s1.271,2.833,2.833,2.833c1.562,0,2.833-1.271,2.833-2.833
	S252.462,161.289,250.9,161.289z"/>
<path d="M261.1,167.522c-1.874,0-3.399-1.525-3.399-3.4s1.525-3.4,3.399-3.4c1.875,0,3.4,1.525,3.4,3.4
	S262.975,167.522,261.1,167.522z M261.1,161.289c-1.562,0-2.833,1.271-2.833,2.833s1.271,2.833,2.833,2.833
	c1.562,0,2.834-1.271,2.834-2.833S262.662,161.289,261.1,161.289z"/>
<path d="M255.717,164.405h-5.1c-0.1,0-0.193-0.053-0.244-0.14c-0.051-0.086-0.052-0.193-0.003-0.281l2.833-5.1
	c0.05-0.09,0.145-0.146,0.248-0.146h5.383c0.103,0,0.197,0.055,0.247,0.145c0.051,0.089,0.049,0.199-0.005,0.286l-3.117,5.1
	C255.907,164.354,255.815,164.405,255.717,164.405z M251.098,163.839h4.459l2.771-4.534h-4.711L251.098,163.839z"/>
<path d="M255.717,164.405h-5.1c-0.1,0-0.193-0.053-0.244-0.14c-0.051-0.086-0.052-0.193-0.003-0.281l2.833-5.1
	c0.052-0.094,0.154-0.149,0.261-0.145c0.107,0.004,0.202,0.07,0.246,0.168l2.267,5.1c0.039,0.088,0.031,0.189-0.021,0.27
	S255.812,164.405,255.717,164.405z M251.098,163.839h4.183l-1.859-4.183L251.098,163.839z"/>
<path d="M261.1,164.405c-0.108,0-0.213-0.063-0.259-0.169l-3.117-7.083c-0.062-0.143,0.002-0.31,0.146-0.373
	c0.144-0.063,0.311,0.002,0.373,0.146l3.117,7.083c0.062,0.143-0.002,0.311-0.146,0.374
	C261.177,164.398,261.139,164.405,261.1,164.405z"/>
<path d="M260.816,158.456h-0.85c-0.156,0-0.283-0.127-0.283-0.284c0-0.156,0.127-0.283,0.283-0.283h0.85
	c0.156,0,0.283-0.127,0.283-0.283s-0.127-0.283-0.283-0.283h-2.833c-0.156,0-0.283-0.127-0.283-0.284
	c0-0.156,0.127-0.283,0.283-0.283h2.833c0.469,0,0.851,0.381,0.851,0.85C261.667,158.074,261.285,158.456,260.816,158.456z"/>
<path d="M253.45,159.305c-0.104,0-0.204-0.057-0.253-0.157l-0.85-1.7c-0.07-0.14-0.013-0.31,0.126-0.38
	c0.14-0.07,0.31-0.014,0.38,0.127l0.85,1.7c0.07,0.14,0.013,0.31-0.126,0.38C253.536,159.296,253.493,159.305,253.45,159.305z"/>
<path d="M253.733,157.605h-1.983c-0.156,0-0.283-0.127-0.283-0.283c0-0.157,0.127-0.284,0.283-0.284h1.983
	c0.156,0,0.283,0.127,0.283,0.284C254.017,157.479,253.89,157.605,253.733,157.605z"/>
<path d="M261.1,166.389c-1.249,0-2.267-1.017-2.267-2.267c0-0.156,0.127-0.283,0.284-0.283c0.156,0,0.283,0.127,0.283,0.283
	c0,0.938,0.763,1.7,1.699,1.7c0.938,0,1.7-0.763,1.7-1.7c0-0.156,0.127-0.283,0.283-0.283s0.284,0.127,0.284,0.283
	C263.367,165.372,262.35,166.389,261.1,166.389z"/>
<path d="M248.952,164.428c-0.153,0-0.279-0.122-0.283-0.275c-0.026-0.878,0.439-1.667,1.215-2.058c0.139-0.07,0.31-0.014,0.38,0.125
	s0.015,0.31-0.125,0.381c-0.577,0.291-0.924,0.879-0.904,1.535c0.005,0.156-0.118,0.287-0.274,0.292
	C248.958,164.428,248.954,164.428,248.952,164.428z"/>
<path d="M250.898,166.389c-0.755,0-1.447-0.376-1.852-1.006c-0.084-0.132-0.046-0.307,0.085-0.392
	c0.132-0.084,0.307-0.046,0.392,0.085c0.299,0.467,0.813,0.746,1.375,0.746h0.002c0.156,0,0.283,0.126,0.283,0.283
	C251.184,166.262,251.054,166.4,250.898,166.389z"/>
</svg>
