<?xml version="1.0" encoding="utf-8"?>
<!-- Generator: Adobe Illustrator 16.0.0, SVG Export Plug-In . SVG Version: 6.00 Build 0)  -->
<!DOCTYPE svg PUBLIC "-//W3C//DTD SVG 1.1//EN" "http://www.w3.org/Graphics/SVG/1.1/DTD/svg11.dtd">
<svg version="1.1" id="Layer_1" xmlns="http://www.w3.org/2000/svg" xmlns:xlink="http://www.w3.org/1999/xlink" x="0px" y="0px"
	 width="17px" height="16.567px" viewBox="0 0 17 16.567" enable-background="new 0 0 17 16.567" xml:space="preserve">
<g>
	<path fill="#353536" d="M16.5,0h-16C0.225,0,0,0.224,0,0.5v15.567c0,0.276,0.225,0.5,0.5,0.5h16c0.276,0,0.5-0.224,0.5-0.5V0.5
		C17,0.224,16.776,0,16.5,0z M16,1v2.431H1V1H16z M1,15.567V4.431h15v11.137H1z"/>
	<circle fill="#353536" cx="13.596" cy="2.269" r="0.569"/>
	<circle fill="#353536" cx="3.264" cy="2.269" r="0.569"/>
	<path fill="#353536" d="M14.032,5.798H2.949c-0.275,0-0.5,0.224-0.5,0.5v7.404c0,0.276,0.225,0.5,0.5,0.5h11.083
		c0.276,0,0.5-0.224,0.5-0.5V6.298C14.532,6.021,14.309,5.798,14.032,5.798z M13.532,9.488h-2.678v-2.69h2.678V9.488z M7.152,9.488
		v-2.69h2.702v2.69H7.152z M9.854,10.488v2.714H7.152v-2.714H9.854z M6.152,6.798v2.69H3.449v-2.69H6.152z M3.449,10.488h2.703
		v2.714H3.449V10.488z M10.854,13.202v-2.714h2.678v2.714H10.854z"/>
</g>
</svg>
