<?xml version="1.0" encoding="utf-8"?>
<!-- Generator: Adobe Illustrator 16.0.0, SVG Export Plug-In . SVG Version: 6.00 Build 0)  -->
<!DOCTYPE svg PUBLIC "-//W3C//DTD SVG 1.1//EN" "http://www.w3.org/Graphics/SVG/1.1/DTD/svg11.dtd">
<svg version="1.1" id="Capa_1" xmlns="http://www.w3.org/2000/svg" xmlns:xlink="http://www.w3.org/1999/xlink" x="0px" y="0px"
	 width="25px" height="25.001px" viewBox="293.498 383.505 25 25.001" enable-background="new 293.498 383.505 25 25.001"
	 xml:space="preserve">
<path d="M317.307,384.696c-1.587-1.587-4.172-1.587-5.759,0l-16.318,16.317c-0.008,0.008-0.012,0.018-0.019,0.026
	c-0.01,0.011-0.018,0.022-0.027,0.034c-0.023,0.034-0.042,0.069-0.056,0.108c-0.004,0.012-0.01,0.021-0.013,0.033
	c-0.002,0.005-0.004,0.01-0.006,0.015l-1.6,6.719c-0.006,0.03-0.009,0.062-0.01,0.091c0,0.007-0.001,0.012-0.001,0.018
	c0.001,0.053,0.011,0.103,0.029,0.15c0.004,0.011,0.009,0.021,0.014,0.032c0.022,0.049,0.05,0.095,0.089,0.134
	c0.043,0.044,0.094,0.076,0.148,0.099c0.055,0.023,0.113,0.034,0.172,0.034c0.035,0,0.07-0.005,0.104-0.013l6.72-1.599
	c0.012-0.003,0.023-0.01,0.035-0.015c0.015-0.005,0.03-0.01,0.044-0.018c0.033-0.015,0.063-0.032,0.091-0.056
	c0.011-0.008,0.022-0.015,0.033-0.024c0.003-0.003,0.008-0.005,0.011-0.008l16.318-16.319
	C318.896,388.868,318.896,386.284,317.307,384.696z M316.667,385.335c1.126,1.126,1.223,2.895,0.295,4.134l-4.429-4.428
	C313.773,384.114,315.542,384.21,316.667,385.335z M314.428,392.055l-4.479-4.48l0.64-0.64l4.479,4.48L314.428,392.055z
	 M295.743,406.26c-0.177-0.177-0.462-0.177-0.64,0l-0.343,0.342l1.156-4.854l2.001-0.221l-0.257,2.315
	c-0.001,0.019,0.004,0.034,0.004,0.051c0,0.018-0.006,0.032-0.004,0.051c0.002,0.015,0.009,0.025,0.012,0.04
	c0.006,0.026,0.013,0.051,0.023,0.075c0.012,0.029,0.026,0.057,0.043,0.081c0.014,0.021,0.028,0.041,0.046,0.059
	c0.021,0.023,0.044,0.043,0.071,0.061c0.02,0.015,0.04,0.027,0.062,0.037c0.029,0.015,0.061,0.023,0.094,0.031
	c0.017,0.003,0.031,0.013,0.049,0.015c0.016,0.003,0.032,0.003,0.049,0.003h0l0,0h0.001h0.001c0.016,0,0.032,0,0.049-0.003
	l2.317-0.257l-0.222,2.002l-4.854,1.155l0.342-0.344C295.919,406.724,295.919,406.438,295.743,406.26z M301.421,403.781
	l10.126-10.127c0.176-0.177,0.176-0.462,0-0.64c-0.177-0.177-0.464-0.177-0.641,0l-10.125,10.127l-2.16,0.239l0.24-2.16
	l10.126-10.125c0.177-0.177,0.177-0.463,0-0.641c-0.176-0.176-0.463-0.176-0.64,0l-10.126,10.126l-1.44,0.16l12.527-12.526
	l4.479,4.48l-12.526,12.527L301.421,403.781z M315.707,390.775l-4.479-4.479l0.64-0.641l4.48,4.48L315.707,390.775z"/>
</svg>
