<?xml version="1.0" encoding="utf-8"?>
<!-- Generator: Adobe Illustrator 16.0.0, SVG Export Plug-In . SVG Version: 6.00 Build 0)  -->
<!DOCTYPE svg PUBLIC "-//W3C//DTD SVG 1.1//EN" "http://www.w3.org/Graphics/SVG/1.1/DTD/svg11.dtd">
<svg version="1.1" id="Layer_1" xmlns="http://www.w3.org/2000/svg" xmlns:xlink="http://www.w3.org/1999/xlink" x="0px" y="0px"
	 width="15.247px" height="16.976px" viewBox="0 0 15.247 16.976" enable-background="new 0 0 15.247 16.976" xml:space="preserve">
<path d="M14.115,5.522c-0.463-3.306-1.637-4.321-3.257-4.797c-0.011-0.004-0.021-0.011-0.032-0.014
	c-0.006-0.001-0.012-0.001-0.018-0.003s-0.011-0.004-0.017-0.006C8.902,0.168,5.008-0.1,4.234,0.035
	C3.851,0.102,3.51,0.246,3.221,0.465c-0.565,0.428-0.789,1.158-0.57,1.86C2.776,2.726,3.04,3.029,3.362,3.217
	C3.332,3.372,3.298,3.529,3.27,3.681C3.085,4.665,2.911,5.594,2.118,7.183L1.703,8c-1.147,2.244-1.976,3.865-1.62,7.163
	c0.023,0.218,0.188,0.392,0.403,0.429l8.024,1.378c0.027,0.005,0.055,0.007,0.082,0.007h0c0.004,0,0.008,0,0.013,0
	c3.368-0.089,6.352-2.717,6.477-2.828c0.121-0.108,0.181-0.27,0.159-0.431C15.243,13.717,14.545,8.607,14.115,5.522z M3.811,1.244
	C3.977,1.118,4.17,1.037,4.402,0.997C4.836,0.922,6.939,1.03,8.744,1.291C8.35,1.72,8.212,2.321,8.382,2.902
	C6.903,2.741,4.736,2.508,4.044,2.443C3.73,2.43,3.612,2.127,3.583,2.034C3.511,1.803,3.527,1.458,3.811,1.244z M1.02,14.693
	c-0.229-2.764,0.489-4.167,1.553-6.248L2.991,7.62C3.845,5.909,4.041,4.868,4.23,3.861C4.255,3.727,4.285,3.586,4.311,3.45
	c1.265,0.127,4.385,0.468,5.215,0.559c0.004,0.001,0.01,0,0.015,0.001C9.66,4.023,9.73,4.031,9.73,4.031l0.003-0.019
	c0.1,0.004,0.196,0.019,0.3,0.003c0.267-0.042,0.449-0.291,0.407-0.558c-0.041-0.266-0.291-0.45-0.558-0.407
	C9.799,3.063,9.728,3.058,9.666,3.042c-0.001,0-0.002,0-0.003,0C9.475,2.99,9.375,2.83,9.33,2.72
	C9.22,2.461,9.236,2.082,9.531,1.858c0.312-0.234,0.671-0.309,1.013-0.211c0.004,0.001,0.008,0.002,0.012,0.003
	c0.332,0.1,0.594,0.354,0.72,0.698c0.365,1-1.099,4.192-1.972,6.1c-0.426,0.929-0.794,1.732-0.948,2.225
	c-0.511,1.64-0.63,3.352-0.357,5.217L1.02,14.693z M9.012,15.954c-0.288-1.794-0.209-3.437,0.276-4.989
	c0.135-0.434,0.491-1.211,0.902-2.109c1.155-2.52,2.049-4.612,2.098-5.996c0.37,0.581,0.671,1.45,0.859,2.797
	c0.372,2.663,0.942,6.835,1.091,7.925C13.587,14.107,11.398,15.714,9.012,15.954z"/>
</svg>
