<?xml version="1.0" encoding="utf-8"?>
<!-- Generator: Adobe Illustrator 16.0.0, SVG Export Plug-In . SVG Version: 6.00 Build 0)  -->
<!DOCTYPE svg PUBLIC "-//W3C//DTD SVG 1.1//EN" "http://www.w3.org/Graphics/SVG/1.1/DTD/svg11.dtd">
<svg version="1.1" id="Layer_1" xmlns="http://www.w3.org/2000/svg" xmlns:xlink="http://www.w3.org/1999/xlink" x="0px" y="0px"
	 width="16.834px" height="15.051px" viewBox="0 0 16.834 15.051" enable-background="new 0 0 16.834 15.051" xml:space="preserve">
<path fill="#FFFFFF" d="M15.639,3.843c-0.908-1.471-2.546-2.388-4.274-2.391c-0.129-0.022-0.255,0.01-0.371,0.021
	c-0.022,0.003-0.044,0.005-0.066,0.007C9.989,0.526,8.751,0.003,7.42,0C7.416,0,7.412,0,7.408,0C4.952,0,2.854,1.831,2.509,4.225
	C1.022,4.74,0.004,6.172,0,7.801c-0.002,1.011,0.391,1.964,1.107,2.685c0.717,0.72,1.668,1.117,2.679,1.12h0.001
	c0.052,0,0.102-0.01,0.148-0.027c-0.061,1.581-0.361,2.754-0.401,2.906c-0.014,0.042-0.021,0.086-0.021,0.13
	c0,0.208,0.153,0.385,0.36,0.413c0.049,0.008,0.099,0.006,0.146-0.005l11.92,0.028c0.001,0,0.001,0,0.001,0
	c0.197,0,0.368-0.138,0.408-0.331C17.209,10.659,16.897,5.882,15.639,3.843z M15.6,14.216l-3.17-0.008
	c0.235-1.101,0.655-3.791-0.106-6.537C12.262,7.448,12.031,7.32,11.81,7.38c-0.222,0.062-0.353,0.292-0.29,0.514
	c0.75,2.705,0.253,5.435,0.056,6.312l-3.068-0.008c0.236-1.106,0.651-3.789-0.109-6.527C8.337,7.448,8.106,7.32,7.885,7.38
	c-0.222,0.062-0.352,0.292-0.29,0.514c0.747,2.694,0.257,5.414,0.058,6.303l-3.191-0.008c0.236-1.117,0.644-3.793-0.111-6.518
	C4.288,7.448,4.058,7.32,3.836,7.38C3.614,7.442,3.484,7.672,3.545,7.894c0.276,0.996,0.383,1.998,0.398,2.907
	c-0.048-0.019-0.101-0.029-0.156-0.029C3,10.769,2.258,10.459,1.699,9.896S0.833,8.591,0.834,7.803
	c0.003-1.351,0.893-2.524,2.163-2.855c0.172-0.045,0.296-0.192,0.311-0.368c0.177-2.102,1.977-3.745,4.1-3.745
	c0.003,0,0.007,0,0.01,0c1.161,0.003,2.236,0.483,3.029,1.353c0.079,0.087,0.19,0.136,0.308,0.136
	c0.109,0.004,0.208-0.008,0.315-0.019c0.092-0.009,0.189,0.009,0.292-0.018c1.442,0.003,2.81,0.768,3.566,1.994
	C16.037,6.076,16.324,10.472,15.6,14.216z"/>
</svg>
