<?xml version="1.0" encoding="utf-8"?>
<!-- Generator: Adobe Illustrator 16.0.0, SVG Export Plug-In . SVG Version: 6.00 Build 0)  -->
<!DOCTYPE svg PUBLIC "-//W3C//DTD SVG 1.1//EN" "http://www.w3.org/Graphics/SVG/1.1/DTD/svg11.dtd">
<svg version="1.1" id="Layer_1" xmlns="http://www.w3.org/2000/svg" xmlns:xlink="http://www.w3.org/1999/xlink" x="0px" y="0px"
	 width="12.824px" height="17.4px" viewBox="0 0 12.824 17.4" enable-background="new 0 0 12.824 17.4" xml:space="preserve">
<g>
	<path fill="#FFFFFF" d="M6.412,0C2.876,0,0,2.877,0,6.412c0,0.9,0.187,1.776,0.538,2.562c0.985,2.858,5.273,7.745,5.456,7.952
		L6.412,17.4l0.418-0.475c0.182-0.207,4.471-5.094,5.437-7.907c0.37-0.829,0.557-1.705,0.557-2.606C12.824,2.877,9.948,0,6.412,0z
		 M11.232,8.61c-0.743,2.155-3.713,5.784-4.82,7.092c-1.107-1.308-4.08-4.943-4.837-7.138C1.27,7.88,1.115,7.155,1.115,6.412
		c0-2.921,2.376-5.297,5.297-5.297s5.298,2.376,5.298,5.297C11.71,7.155,11.556,7.879,11.232,8.61z"/>
	<path fill="#FFFFFF" d="M6.412,3.22c-1.823,0-3.306,1.483-3.306,3.307c0,1.822,1.483,3.306,3.306,3.306
		c1.823,0,3.306-1.483,3.306-3.306C9.718,4.703,8.235,3.22,6.412,3.22z M6.412,8.717c-1.208,0-2.191-0.982-2.191-2.19
		s0.983-2.191,2.191-2.191s2.191,0.983,2.191,2.191S7.62,8.717,6.412,8.717z"/>
</g>
</svg>
