<?xml version="1.0" encoding="utf-8"?>
<!-- Generator: Adobe Illustrator 16.0.0, SVG Export Plug-In . SVG Version: 6.00 Build 0)  -->
<!DOCTYPE svg PUBLIC "-//W3C//DTD SVG 1.1//EN" "http://www.w3.org/Graphics/SVG/1.1/DTD/svg11.dtd">
<svg version="1.1" id="Layer_1" xmlns="http://www.w3.org/2000/svg" xmlns:xlink="http://www.w3.org/1999/xlink" x="0px" y="0px"
	 width="16px" height="16px" viewBox="0 0 16 16" enable-background="new 0 0 16 16" xml:space="preserve">
<g>
	<g>
		<g>
			<path fill="#353536" d="M9.584,12H8.917c-0.185,0-0.333,0.148-0.333,0.333v2.333h-7.25V1.333h7.25v2.333
				C8.584,3.851,8.732,4,8.917,4h0.667c0.184,0,0.332-0.149,0.332-0.333V1.333C9.916,0.597,9.32,0,8.584,0h-7.25
				C0.597,0,0,0.597,0,1.333v13.333C0,15.403,0.597,16,1.333,16h7.25c0.736,0,1.332-0.598,1.332-1.334v-2.333
				C9.916,12.149,9.768,12,9.584,12z"/>
			<path fill="#353536" d="M15.893,7.754l-4-3.667c-0.098-0.089-0.24-0.113-0.359-0.059c-0.121,0.053-0.2,0.173-0.2,0.305V5
				c0,0.094,0.04,0.185,0.11,0.248l2.317,2.086H4.333C4.149,7.333,4,7.483,4,7.667v0.666c0,0.185,0.149,0.333,0.333,0.333h9.427
				l-2.317,2.086c-0.07,0.062-0.11,0.153-0.11,0.248v0.666c0,0.133,0.079,0.252,0.2,0.305C11.575,11.991,11.621,12,11.666,12
				c0.082,0,0.163-0.031,0.227-0.088l4-3.667C15.961,8.183,16,8.093,16,8S15.961,7.817,15.893,7.754z"/>
		</g>
	</g>
</g>
</svg>
