<?xml version="1.0" encoding="utf-8"?>
<!-- Generator: Adobe Illustrator 16.0.0, SVG Export Plug-In . SVG Version: 6.00 Build 0)  -->
<!DOCTYPE svg PUBLIC "-//W3C//DTD SVG 1.1//EN" "http://www.w3.org/Graphics/SVG/1.1/DTD/svg11.dtd">
<svg version="1.1" id="Layer_1" xmlns="http://www.w3.org/2000/svg" xmlns:xlink="http://www.w3.org/1999/xlink" x="0px" y="0px"
	 width="11.278px" height="16.934px" viewBox="0 0 11.278 16.934" enable-background="new 0 0 11.278 16.934" xml:space="preserve">
<g>
	<path d="M10.022,5.767V2.333c0-0.258-0.209-0.467-0.468-0.467H1.797c-0.258,0-0.467,0.209-0.467,0.467v3.434
		c0,0.151,0.074,0.294,0.198,0.382l3.291,2.323l-3.291,2.323c-0.124,0.088-0.198,0.23-0.198,0.382v3.433
		c0,0.258,0.209,0.467,0.467,0.467h7.758c0.259,0,0.468-0.209,0.468-0.467v-3.433c0-0.151-0.074-0.294-0.198-0.382L6.533,8.472
		l3.291-2.323C9.948,6.061,10.022,5.918,10.022,5.767z M9.088,14.143H2.264v-2.724L5.676,9.01l3.412,2.409V14.143z M9.088,5.524
		L5.676,7.933L2.264,5.524V2.8h6.824V5.524z"/>
	<path d="M10.812,16H0.467C0.209,16,0,16.209,0,16.467s0.209,0.467,0.467,0.467h10.344c0.258,0,0.467-0.209,0.467-0.467
		S11.069,16,10.812,16z"/>
	<path d="M0.467,0.934h10.344c0.258,0,0.467-0.209,0.467-0.467S11.069,0,10.812,0H0.467C0.209,0,0,0.209,0,0.467
		S0.209,0.934,0.467,0.934z"/>
</g>
</svg>
