<?xml version="1.0" encoding="utf-8"?>
<!-- Generator: Adobe Illustrator 16.0.0, SVG Export Plug-In . SVG Version: 6.00 Build 0)  -->
<!DOCTYPE svg PUBLIC "-//W3C//DTD SVG 1.1//EN" "http://www.w3.org/Graphics/SVG/1.1/DTD/svg11.dtd">
<svg version="1.1" id="Layer_1" xmlns="http://www.w3.org/2000/svg" xmlns:xlink="http://www.w3.org/1999/xlink" x="0px" y="0px"
	 width="101.516px" height="10.768px" viewBox="0 0 101.516 10.768" enable-background="new 0 0 101.516 10.768"
	 xml:space="preserve">
<path d="M100.814,4.681H54.387c-0.462-0.137-2.926-1.003-2.926-3.979C51.461,0.314,51.146,0,50.758,0s-0.703,0.314-0.703,0.702
	c0,2.949-2.466,3.838-2.929,3.979H0.703C0.315,4.681,0,4.995,0,5.384s0.315,0.702,0.703,0.702h46.423
	c0.462,0.141,2.93,1.029,2.93,3.979c0,0.389,0.315,0.703,0.703,0.703s0.703-0.314,0.703-0.703c0-2.948,2.466-3.837,2.93-3.979
	h46.423c0.388,0,0.702-0.313,0.702-0.702S101.202,4.681,100.814,4.681z M50.758,7.298c-0.488-0.856-1.166-1.484-1.839-1.914
	c0.673-0.431,1.351-1.058,1.839-1.914c0.487,0.856,1.166,1.483,1.839,1.914C51.924,5.813,51.246,6.441,50.758,7.298z"/>
</svg>
