<?xml version="1.0" encoding="utf-8"?>
<!-- Generator: Adobe Illustrator 16.0.0, SVG Export Plug-In . SVG Version: 6.00 Build 0)  -->
<!DOCTYPE svg PUBLIC "-//W3C//DTD SVG 1.1//EN" "http://www.w3.org/Graphics/SVG/1.1/DTD/svg11.dtd">
<svg version="1.1" id="Layer_1" xmlns="http://www.w3.org/2000/svg" xmlns:xlink="http://www.w3.org/1999/xlink" x="0px" y="0px"
	 width="13.467px" height="17.031px" viewBox="0 0 13.467 17.031" enable-background="new 0 0 13.467 17.031" xml:space="preserve">
<g>
	<path fill="#FFFFFF" d="M6.733,9.622c2.653,0,4.812-2.158,4.812-4.812C11.545,2.158,9.387,0,6.733,0
		C4.081,0,1.922,2.158,1.922,4.811C1.922,7.464,4.081,9.622,6.733,9.622z M6.733,8.591c-1.829,0-3.357-1.308-3.704-3.037
		c0.243,0.023,0.486,0.056,0.73,0.056c1.692,0,3.265-0.55,4.481-1.504c0.504,0.793,1.189,1.485,2.025,2.009
		C9.733,7.556,8.357,8.591,6.733,8.591z M10.513,4.811c0,0.068-0.016,0.133-0.02,0.2C9.878,4.564,9.371,4.014,9.009,3.39
		c0.256-0.277,0.482-0.579,0.685-0.9C10.199,3.132,10.513,3.932,10.513,4.811z M6.733,1.031c0.825,0,1.583,0.272,2.205,0.724
		C7.838,3.673,5.395,4.794,2.983,4.519C3.136,2.573,4.749,1.031,6.733,1.031z"/>
	<path fill="#FFFFFF" d="M12.73,11.671l-3.218-1.662C9.26,9.876,8.948,9.978,8.817,10.229c-0.131,0.254-0.031,0.565,0.222,0.695
		l3.218,1.663c0.08,0.041,0.178,0.202,0.178,0.292L12.436,16H1.032v-3.12c0-0.093,0.101-0.262,0.183-0.306l3.076-1.663
		c0.251-0.136,0.345-0.449,0.209-0.699c-0.136-0.251-0.448-0.343-0.699-0.209l-3.077,1.663C0.305,11.893,0,12.403,0,12.88V16
		c0,0.568,0.463,1.031,1.031,1.031h11.404c0.569,0,1.031-0.463,1.031-1.031v-3.12C13.467,12.407,13.15,11.887,12.73,11.671z"/>
</g>
</svg>
