<?xml version="1.0" standalone="no"?>
<!DOCTYPE svg PUBLIC "-//W3C//DTD SVG 20010904//EN"
 "http://www.w3.org/TR/2001/REC-SVG-20010904/DTD/svg10.dtd">
<svg version="1.0" xmlns="http://www.w3.org/2000/svg"
 width="700.000000pt" height="700.000000pt" viewBox="0 0 700.000000 700.000000"
 preserveAspectRatio="xMidYMid meet">
<metadata>
Created by potrace 1.11, written by Peter Selinger 2001-2013
</metadata>
<g transform="translate(0.000000,700.000000) scale(0.100000,-0.100000)"
fill="#000000" stroke="none">
<path d="M3045 5709 c-22 -4 -61 -10 -85 -12 -112 -14 -324 -86 -440 -150
-277 -152 -494 -376 -627 -647 -49 -99 -107 -270 -124 -364 -9 -53 -15 -67
-32 -72 -116 -35 -270 -135 -384 -248 -169 -169 -271 -362 -317 -601 -14 -76
-16 -336 -3 -390 3 -11 11 -42 17 -70 76 -318 297 -594 597 -744 93 -46 226
-88 308 -97 28 -3 58 -8 68 -10 10 -3 49 -6 87 -5 l69 0 -4 -52 c-12 -169 -18
-235 -21 -262 -11 -88 -16 -130 -19 -144 -3 -19 -15 -93 -21 -136 -2 -16 -9
-50 -14 -75 -5 -25 -12 -56 -14 -70 -2 -14 -11 -52 -18 -85 -23 -98 7 -168 76
-180 61 -11 3586 -14 3614 -4 15 6 37 20 49 31 26 25 33 50 78 313 24 139 29
173 40 270 4 28 8 61 10 75 2 14 7 57 10 95 4 39 8 84 10 100 2 17 6 82 10
145 4 63 8 140 10 170 5 73 5 496 0 585 -8 148 -24 351 -30 390 -2 17 -7 53
-10 80 -44 383 -153 768 -282 996 -259 462 -785 761 -1310 748 -114 -3 -96
-11 -204 86 -26 23 -85 66 -130 97 -183 121 -363 192 -584 229 -81 13 -321 18
-380 8z m345 -254 c261 -43 465 -146 658 -332 76 -74 114 -94 163 -87 55 7
250 7 299 0 253 -37 459 -127 650 -284 178 -146 299 -327 386 -576 32 -92 76
-250 88 -321 3 -16 8 -41 11 -55 9 -38 36 -201 40 -240 2 -19 6 -51 9 -70 5
-38 13 -112 21 -203 23 -250 23 -745 0 -1015 -12 -142 -17 -189 -20 -217 -3
-16 -7 -57 -10 -90 -3 -33 -7 -67 -9 -75 -3 -8 -7 -42 -11 -75 -3 -33 -10 -78
-15 -100 -5 -22 -12 -60 -15 -85 -4 -25 -9 -52 -10 -60 -2 -8 -4 -21 -4 -27
-1 -10 -102 -13 -469 -13 l-469 0 14 73 c17 93 21 113 28 162 4 22 8 47 10 55
2 8 7 47 11 85 3 39 8 81 10 95 26 183 25 731 -1 920 -3 19 -7 58 -11 85 -14
125 -82 435 -105 481 -28 55 -118 75 -173 38 -47 -32 -62 -80 -47 -150 7 -30
12 -55 11 -56 -1 -2 3 -15 8 -29 6 -14 13 -41 16 -60 3 -19 12 -65 20 -104 13
-66 24 -141 45 -330 10 -80 7 -649 -3 -715 -3 -19 -8 -57 -11 -85 -3 -27 -8
-72 -11 -100 -3 -27 -9 -72 -14 -100 -5 -27 -12 -67 -14 -87 -5 -34 -17 -92
-31 -156 l-5 -22 -451 0 -451 1 5 32 c3 18 13 75 22 127 9 52 18 106 20 120 3
14 7 52 11 85 3 33 7 66 10 73 25 80 25 842 0 965 -3 12 -7 42 -10 67 -17 143
-57 341 -92 451 -22 68 -65 95 -145 91 -30 -2 -89 -54 -90 -80 0 -9 -2 -24 -4
-33 -1 -9 10 -69 26 -135 26 -110 36 -156 43 -209 2 -11 8 -54 14 -95 48 -330
47 -716 -3 -1095 -21 -159 -24 -181 -43 -275 l-17 -85 -465 -1 c-256 0 -468 1
-471 2 -3 2 0 31 7 66 8 35 16 81 19 103 3 22 10 65 15 95 6 30 12 84 16 120
3 36 7 76 9 90 25 143 25 772 1 896 -2 11 -7 45 -10 75 -3 30 -8 63 -10 74 -6
30 -19 108 -21 125 -9 62 -59 262 -73 289 -45 91 -162 101 -212 19 -26 -42
-25 -57 6 -191 32 -139 63 -312 70 -394 2 -34 7 -76 9 -95 12 -86 16 -280 6
-274 -6 4 -40 9 -77 11 -405 29 -719 296 -809 690 -17 74 -23 240 -11 315 21
124 78 269 145 366 109 157 246 261 426 325 50 17 98 38 107 46 23 21 46 86
53 153 12 111 51 233 115 363 170 340 499 583 880 651 95 17 292 18 390 1z"/>
</g>
</svg>
