<?xml version="1.0" encoding="utf-8"?>
<!-- Generator: Adobe Illustrator 16.0.0, SVG Export Plug-In . SVG Version: 6.00 Build 0)  -->
<!DOCTYPE svg PUBLIC "-//W3C//DTD SVG 1.1//EN" "http://www.w3.org/Graphics/SVG/1.1/DTD/svg11.dtd">
<svg version="1.1" id="Layer_1" xmlns="http://www.w3.org/2000/svg" xmlns:xlink="http://www.w3.org/1999/xlink" x="0px" y="0px"
	 width="69.663px" height="70.572px" viewBox="0 0 69.663 70.572" enable-background="new 0 0 69.663 70.572" xml:space="preserve">
<g>
	<polygon fill="#353536" points="69.663,60.013 34.832,70.572 0,60.013 0,0 69.663,0 	"/>
	<g>
		<path fill="#ACDDDA" d="M11.162,50.69c0.139,0.06,0.264,0.118,0.376,0.173c0.299,0.146,0.554,0.307,0.764,0.479
			c0.21,0.174,0.369,0.355,0.479,0.546c0.109,0.189,0.17,0.384,0.181,0.582s-0.032,0.396-0.13,0.596
			c-0.068,0.14-0.151,0.259-0.251,0.358c-0.1,0.101-0.212,0.181-0.339,0.242c-0.128,0.062-0.267,0.103-0.417,0.123
			c-0.15,0.021-0.311,0.022-0.481,0.004c0.043,0.339,0.077,0.693,0.103,1.062s0.042,0.746,0.049,1.133l-0.704-0.345
			c-0.01-0.314-0.028-0.642-0.056-0.983c-0.028-0.342-0.064-0.683-0.11-1.021c-0.08-0.027-0.162-0.061-0.247-0.1
			s-0.174-0.083-0.266-0.13L9.36,54.943l-0.644-0.314l2.017-4.12C10.882,50.569,11.024,50.63,11.162,50.69z M10.501,52.944
			c0.042,0.022,0.084,0.044,0.127,0.064c0.18,0.088,0.349,0.148,0.508,0.181s0.304,0.038,0.434,0.018s0.243-0.067,0.342-0.14
			c0.098-0.073,0.176-0.17,0.234-0.29c0.059-0.119,0.086-0.238,0.08-0.357c-0.005-0.119-0.04-0.235-0.105-0.349
			s-0.161-0.223-0.287-0.329c-0.125-0.105-0.279-0.203-0.461-0.292c-0.038-0.019-0.078-0.037-0.119-0.057
			c-0.041-0.019-0.083-0.038-0.127-0.057l-0.754,1.54C10.416,52.9,10.459,52.923,10.501,52.944z"/>
		<path fill="#ACDDDA" d="M13.037,56.625l1.735-4.228l0.66,0.271l-1.734,4.229L13.037,56.625z"/>
		<path fill="#ACDDDA" d="M19.138,54.675c-0.147-0.116-0.309-0.203-0.483-0.262c-0.178-0.06-0.358-0.082-0.543-0.068
			c-0.185,0.015-0.36,0.069-0.528,0.164c-0.168,0.096-0.322,0.233-0.465,0.415c-0.142,0.181-0.259,0.407-0.35,0.68
			c-0.085,0.253-0.13,0.491-0.135,0.716s0.026,0.429,0.096,0.612c0.068,0.184,0.173,0.342,0.313,0.476
			c0.142,0.133,0.317,0.235,0.529,0.306c0.116,0.039,0.229,0.065,0.341,0.08c0.112,0.016,0.222,0.019,0.33,0.011
			c0.107-0.008,0.215-0.027,0.323-0.059c0.107-0.03,0.215-0.071,0.323-0.124l-0.015,0.609c-0.248,0.099-0.504,0.153-0.768,0.164
			c-0.264,0.012-0.538-0.031-0.823-0.126c-0.295-0.1-0.546-0.24-0.752-0.424c-0.207-0.184-0.364-0.399-0.471-0.648
			c-0.106-0.248-0.161-0.523-0.164-0.827c-0.003-0.303,0.053-0.623,0.166-0.961c0.082-0.246,0.183-0.465,0.301-0.655
			c0.118-0.191,0.249-0.355,0.393-0.493s0.298-0.25,0.462-0.336c0.165-0.086,0.335-0.146,0.511-0.182s0.354-0.046,0.537-0.031
			c0.182,0.015,0.361,0.052,0.541,0.112c0.235,0.079,0.443,0.185,0.621,0.318c0.179,0.133,0.326,0.295,0.443,0.486l-0.354,0.479
			C19.412,54.936,19.286,54.792,19.138,54.675z"/>
		<path fill="#ACDDDA" d="M23.745,55.228c0.168,0.086,0.321,0.19,0.459,0.312c0.139,0.123,0.259,0.264,0.361,0.423
			c0.102,0.158,0.182,0.333,0.238,0.524c0.058,0.19,0.089,0.396,0.095,0.617c0.007,0.22-0.02,0.453-0.077,0.7
			c-0.059,0.252-0.14,0.477-0.245,0.676c-0.104,0.198-0.226,0.373-0.363,0.521c-0.138,0.149-0.289,0.273-0.455,0.373
			c-0.165,0.1-0.339,0.175-0.521,0.225c-0.183,0.051-0.369,0.077-0.562,0.078c-0.192,0.002-0.385-0.021-0.577-0.065
			c-0.187-0.043-0.364-0.107-0.532-0.193c-0.168-0.085-0.32-0.188-0.459-0.311s-0.26-0.262-0.364-0.421s-0.186-0.335-0.242-0.525
			c-0.058-0.191-0.088-0.396-0.094-0.617c-0.005-0.22,0.021-0.453,0.079-0.7c0.059-0.252,0.14-0.478,0.244-0.678
			c0.104-0.199,0.226-0.374,0.363-0.523c0.139-0.148,0.292-0.272,0.458-0.372c0.167-0.099,0.342-0.174,0.523-0.225
			c0.182-0.05,0.369-0.076,0.563-0.077c0.193-0.001,0.386,0.021,0.576,0.064C23.4,55.078,23.577,55.143,23.745,55.228z
			 M22.48,55.616c-0.19,0.032-0.369,0.104-0.536,0.215s-0.315,0.26-0.446,0.451c-0.131,0.19-0.228,0.421-0.29,0.69
			c-0.065,0.281-0.083,0.538-0.052,0.771c0.03,0.232,0.097,0.436,0.197,0.609s0.231,0.316,0.393,0.43
			c0.16,0.112,0.337,0.19,0.529,0.235c0.181,0.042,0.365,0.047,0.554,0.015s0.366-0.104,0.533-0.213
			c0.167-0.11,0.315-0.261,0.445-0.452c0.129-0.19,0.226-0.422,0.289-0.694c0.065-0.281,0.083-0.537,0.054-0.77
			c-0.03-0.232-0.096-0.436-0.198-0.609c-0.102-0.174-0.231-0.317-0.39-0.43c-0.159-0.111-0.333-0.189-0.524-0.234
			C22.856,55.588,22.67,55.583,22.48,55.616z"/>
		<path fill="#ACDDDA" d="M28.938,58.403c-0.115-0.259-0.221-0.519-0.317-0.777c-0.096-0.259-0.182-0.521-0.258-0.783
			s-0.145-0.53-0.205-0.804l0.733,0.07c0.047,0.216,0.1,0.426,0.158,0.631c0.06,0.205,0.124,0.407,0.195,0.605
			c0.07,0.198,0.147,0.397,0.23,0.596c0.084,0.199,0.173,0.398,0.268,0.6c0.134-0.179,0.26-0.358,0.378-0.538
			c0.119-0.18,0.231-0.359,0.34-0.541c0.107-0.182,0.21-0.368,0.307-0.558c0.097-0.19,0.19-0.387,0.281-0.59l0.711,0.068
			c-0.11,0.257-0.229,0.507-0.354,0.75c-0.125,0.243-0.261,0.483-0.404,0.72c-0.145,0.236-0.298,0.471-0.459,0.703
			s-0.333,0.465-0.517,0.697l-0.147,1.545l-0.708-0.067l0.146-1.545C29.179,58.923,29.053,58.662,28.938,58.403z"/>
		<path fill="#ACDDDA" d="M37.348,57.061c-0.178-0.06-0.359-0.087-0.544-0.082c-0.188,0.004-0.365,0.044-0.534,0.12
			s-0.315,0.188-0.441,0.334c-0.125,0.147-0.224,0.33-0.296,0.549c-0.072,0.218-0.104,0.472-0.098,0.759
			c0.006,0.267,0.045,0.506,0.116,0.719c0.072,0.213,0.171,0.395,0.298,0.544s0.28,0.263,0.458,0.341
			c0.178,0.077,0.378,0.113,0.602,0.107c0.122-0.003,0.238-0.016,0.349-0.04s0.215-0.059,0.313-0.103s0.193-0.099,0.284-0.165
			c0.091-0.065,0.178-0.141,0.262-0.227l0.194,0.578c-0.2,0.177-0.422,0.315-0.667,0.416c-0.244,0.1-0.517,0.153-0.817,0.161
			c-0.312,0.007-0.595-0.04-0.853-0.143c-0.257-0.103-0.478-0.253-0.662-0.45c-0.186-0.197-0.331-0.438-0.437-0.723
			s-0.162-0.604-0.171-0.96c-0.006-0.26,0.014-0.5,0.061-0.721c0.046-0.22,0.113-0.419,0.201-0.597
			c0.089-0.179,0.195-0.336,0.321-0.474c0.125-0.137,0.265-0.252,0.418-0.345c0.154-0.093,0.318-0.163,0.495-0.212
			c0.176-0.048,0.358-0.074,0.547-0.079c0.249-0.006,0.48,0.024,0.693,0.089s0.407,0.167,0.582,0.307l-0.17,0.571
			C37.694,57.212,37.526,57.119,37.348,57.061z"/>
		<path fill="#ACDDDA" d="M42.493,58.274c0.323,0.741,0.604,1.479,0.843,2.211l-0.728,0.08c-0.05-0.159-0.103-0.319-0.157-0.482
			c-0.054-0.162-0.113-0.325-0.176-0.486l-1.811,0.198c-0.026,0.172-0.049,0.343-0.067,0.513c-0.018,0.171-0.034,0.339-0.049,0.505
			l-0.711,0.078c0.074-0.767,0.189-1.548,0.347-2.342c0.157-0.795,0.347-1.583,0.567-2.366l0.875-0.096
			C41.814,56.803,42.17,57.532,42.493,58.274z M41.582,57.921c-0.167-0.364-0.342-0.719-0.524-1.064
			c-0.102,0.377-0.195,0.761-0.281,1.153c-0.086,0.392-0.161,0.785-0.226,1.179l1.506-0.165
			C41.908,58.653,41.75,58.285,41.582,57.921z"/>
		<path fill="#ACDDDA" d="M45.33,59.485c0.188,0.024,0.372,0.02,0.554-0.016c0.118-0.022,0.223-0.058,0.315-0.105
			c0.093-0.047,0.169-0.104,0.229-0.172c0.061-0.067,0.103-0.143,0.126-0.226c0.022-0.083,0.024-0.174,0.006-0.273
			c-0.022-0.117-0.071-0.215-0.146-0.291s-0.166-0.139-0.273-0.188c-0.108-0.049-0.229-0.091-0.361-0.124
			c-0.134-0.033-0.27-0.067-0.407-0.103c-0.138-0.036-0.274-0.077-0.409-0.124c-0.135-0.048-0.259-0.11-0.373-0.188
			c-0.115-0.078-0.214-0.177-0.297-0.295s-0.142-0.267-0.176-0.443c-0.037-0.195-0.036-0.377,0.005-0.545
			c0.041-0.167,0.114-0.317,0.22-0.45s0.24-0.244,0.405-0.334s0.353-0.154,0.563-0.195c0.215-0.042,0.418-0.052,0.608-0.031
			c0.19,0.021,0.378,0.07,0.561,0.146l-0.065,0.596c-0.168-0.068-0.334-0.112-0.497-0.132s-0.326-0.014-0.488,0.018
			c-0.105,0.02-0.2,0.052-0.284,0.096c-0.085,0.044-0.154,0.097-0.21,0.16s-0.095,0.135-0.119,0.215
			c-0.023,0.08-0.027,0.165-0.01,0.256c0.022,0.115,0.071,0.209,0.145,0.281c0.074,0.072,0.166,0.132,0.274,0.18
			s0.229,0.088,0.36,0.119s0.267,0.064,0.404,0.101c0.138,0.035,0.275,0.077,0.411,0.127c0.136,0.049,0.261,0.113,0.375,0.194
			c0.114,0.08,0.213,0.182,0.296,0.303c0.084,0.122,0.144,0.274,0.179,0.457c0.038,0.198,0.035,0.383-0.009,0.556
			s-0.123,0.327-0.235,0.463c-0.112,0.137-0.254,0.252-0.426,0.345c-0.173,0.094-0.365,0.16-0.577,0.202
			c-0.242,0.046-0.47,0.059-0.682,0.036s-0.408-0.076-0.591-0.161l0.05-0.605C44.958,59.409,45.142,59.46,45.33,59.485z"/>
		<path fill="#ACDDDA" d="M48.823,55.262l0.359,1.311l1.613-0.442l0.158,0.579l-1.612,0.442l0.38,1.382l1.759-0.482l0.157,0.576
			l-2.449,0.672l-1.214-4.423l2.449-0.673l0.158,0.576L48.823,55.262z"/>
		<path fill="#ACDDDA" d="M52.223,53.581c0.14-0.058,0.268-0.107,0.386-0.15c0.313-0.113,0.605-0.185,0.876-0.216
			c0.271-0.03,0.513-0.019,0.726,0.035s0.394,0.146,0.544,0.275s0.263,0.299,0.338,0.508c0.053,0.146,0.081,0.289,0.084,0.43
			s-0.018,0.278-0.062,0.412c-0.044,0.134-0.111,0.263-0.2,0.385c-0.09,0.123-0.2,0.239-0.332,0.349
			c0.273,0.206,0.551,0.428,0.834,0.665s0.566,0.488,0.85,0.752l-0.738,0.268c-0.232-0.212-0.48-0.426-0.746-0.644
			s-0.535-0.428-0.811-0.631c-0.075,0.039-0.156,0.075-0.244,0.109c-0.087,0.033-0.18,0.067-0.277,0.1l0.581,1.606l-0.674,0.244
			l-1.562-4.314C51.94,53.699,52.083,53.638,52.223,53.581z M53.385,55.624c0.045-0.015,0.089-0.03,0.134-0.047
			c0.188-0.067,0.35-0.147,0.483-0.239c0.134-0.093,0.238-0.192,0.313-0.3c0.076-0.107,0.122-0.222,0.138-0.343s0-0.245-0.045-0.37
			c-0.046-0.126-0.113-0.228-0.202-0.307s-0.197-0.134-0.324-0.166c-0.127-0.031-0.272-0.039-0.436-0.022
			c-0.164,0.017-0.341,0.06-0.53,0.129c-0.041,0.015-0.082,0.029-0.124,0.046c-0.043,0.017-0.086,0.034-0.129,0.052l0.583,1.612
			C53.293,55.654,53.34,55.64,53.385,55.624z"/>
		<path fill="#ACDDDA" d="M58.237,51.136c0.184-0.037,0.368-0.05,0.553-0.039c0.185,0.01,0.365,0.046,0.544,0.106
			c0.178,0.062,0.349,0.148,0.512,0.263s0.315,0.256,0.456,0.425c0.142,0.168,0.266,0.367,0.374,0.597
			c0.109,0.232,0.186,0.46,0.227,0.681c0.041,0.22,0.054,0.432,0.038,0.633c-0.015,0.202-0.057,0.394-0.125,0.574
			c-0.068,0.18-0.157,0.347-0.269,0.499c-0.111,0.151-0.242,0.288-0.392,0.408c-0.15,0.12-0.314,0.223-0.493,0.308
			c-0.173,0.081-0.352,0.141-0.536,0.178c-0.184,0.036-0.368,0.051-0.552,0.041s-0.366-0.045-0.546-0.104
			c-0.181-0.06-0.352-0.147-0.515-0.262s-0.315-0.256-0.455-0.425c-0.141-0.169-0.265-0.368-0.372-0.598
			c-0.11-0.232-0.187-0.46-0.229-0.681c-0.043-0.221-0.056-0.433-0.04-0.635c0.017-0.203,0.06-0.395,0.129-0.575
			c0.068-0.181,0.159-0.348,0.27-0.5c0.111-0.151,0.242-0.288,0.394-0.409c0.15-0.121,0.314-0.223,0.491-0.307
			C57.874,51.232,58.053,51.173,58.237,51.136z M57.486,52.224c-0.128,0.144-0.224,0.31-0.286,0.499
			c-0.062,0.19-0.086,0.4-0.07,0.63c0.017,0.23,0.083,0.471,0.201,0.721c0.123,0.261,0.269,0.473,0.437,0.636
			c0.168,0.162,0.346,0.281,0.532,0.354s0.377,0.104,0.572,0.093c0.195-0.011,0.383-0.059,0.562-0.143
			c0.167-0.079,0.314-0.189,0.442-0.332c0.128-0.142,0.223-0.308,0.285-0.497c0.062-0.19,0.086-0.399,0.069-0.629
			c-0.018-0.229-0.085-0.471-0.204-0.724c-0.123-0.26-0.268-0.472-0.435-0.636c-0.168-0.163-0.345-0.281-0.532-0.354
			s-0.378-0.104-0.571-0.094c-0.193,0.01-0.379,0.057-0.556,0.141C57.764,51.968,57.615,52.08,57.486,52.224z"/>
	</g>
	
		<path fill="none" stroke="#ACDDDA" stroke-width="0.956" stroke-linecap="round" stroke-linejoin="round" stroke-miterlimit="10" d="
		M34.832,42.391"/>
	<g>
		<path fill="#ACDDDA" d="M58.357,37.014c-0.241-0.104-0.523,0.004-0.63,0.245c-1.295,2.936-4.482,6.065-9.554,6.122
			c-6.654-2.158-10.47-7.605-10.47-14.961c0-6.245,2.35-11.023,6.973-14.211c1.285-0.385,2.553-0.582,3.718-0.608
			c0.005,0.001,0.008,0.003,0.013,0.003c1.612,0,2.901,0.561,3.729,1.62c0.838,1.073,1.122,2.578,0.761,4.025
			c-0.525,2.104-1.668,2.579-2.036,2.68c-0.858-0.387-1.64-1.217-1.825-2.702c-0.032-0.263-0.271-0.449-0.533-0.415
			c-0.263,0.032-0.448,0.271-0.415,0.533c0.229,1.839,1.256,2.966,2.443,3.48c0.038,0.026,0.078,0.047,0.124,0.061
			c0.423,0.167,0.864,0.258,1.295,0.272c1.639,0.065,3.62-0.978,4.092-3.383c0.356-1.818,0-3.442-1.032-4.696
			c-1.298-1.578-3.548-2.446-6.334-2.446c-1.315,0-2.771,0.216-4.241,0.651c-0.048,0.005-0.093,0.021-0.138,0.041
			c-5.223,1.599-10.6,6.148-10.6,15.162c0,10.298,7.389,15.854,14.341,15.854c0.019,0,0.035-0.002,0.054-0.002
			c0.005,0,0.009,0.002,0.014,0.002c0.004,0,0.006-0.003,0.009-0.003c5.566-0.032,9.066-3.472,10.488-6.694
			C58.709,37.402,58.6,37.12,58.357,37.014z M54.271,15.687c0.845,1.025,1.133,2.376,0.832,3.905
			c-0.335,1.713-1.595,2.513-2.798,2.597c0.572-0.493,1.173-1.32,1.52-2.708c0.433-1.729,0.083-3.541-0.935-4.845
			c-0.04-0.052-0.09-0.104-0.135-0.156C53.36,14.801,53.874,15.203,54.271,15.687z M34.653,28.487
			c0-6.744,3.194-10.831,6.964-12.978c-3.232,3.246-4.869,7.573-4.869,12.91c0,6.555,2.875,11.675,7.99,14.507
			C39.41,41.474,34.653,36.522,34.653,28.487z"/>
		<path fill="#ACDDDA" d="M43.518,47.413c-0.528-0.036-1.091-0.125-1.673-0.263c-1.341-0.32-3.86-1.174-5.656-3.299
			c-0.998-1.181-1.604-2.432-2.306-3.88c-0.985-2.035-2.103-4.342-4.641-7.159c-1.513-1.679-3.164-2.814-4.808-3.656
			c0.398-0.195,0.795-0.401,1.184-0.623c0.007-0.004,0.016-0.003,0.022-0.007c0.019-0.012,0.034-0.026,0.053-0.039
			c2.769-1.605,5.112-4.003,5.112-8.39c0-4.928-3.922-7.144-6.706-7.144c-1.091,0-2.261,0.293-3.392,0.576
			c-2.149,0.538-4.181,1.048-5.749-0.237c-0.007-0.006-0.016-0.007-0.022-0.012c-0.936-0.933-2.031-1.64-3.067-2.214
			c0-0.001-0.001-0.001-0.002-0.002l-0.147-0.081c-0.232-0.121-0.52-0.032-0.644,0.199c-0.123,0.231-0.037,0.519,0.193,0.645
			l0.133,0.073c2.222,1.29,2.554,5.027,2.554,7.141v18.724c0,1.212-1.686,1.766-1.878,1.824c-0.243,0.075-0.385,0.328-0.322,0.574
			c0.062,0.247,0.307,0.4,0.557,0.352c0.874-0.174,1.408,0.033,2.907,1.435c2.665,2.492,5.458,2.853,5.575,2.866
			c0.02,0.003,0.039,0.004,0.058,0.004c0.004,0,0.007,0,0.011,0c0.271,0.02,0.487-0.211,0.487-0.479
			c0-0.207-0.132-0.383-0.315-0.449c-3.366-2.123-3.731-4.988-3.731-6.127V27.545c0.524,0.18,1.071,0.354,1.651,0.535
			c0.096,0.03,0.198,0.062,0.295,0.093c0.022,0.014,0.039,0.031,0.064,0.041c3.88,1.481,8.727,7.009,11.272,12.856
			c2.062,4.737,4.581,6.883,8.223,6.883c0.575,0,1.179-0.053,1.813-0.158c0,0,0.001-0.001,0.002-0.001
			c0.368,0.119,0.713,0.218,0.998,0.286c0.633,0.15,1.248,0.247,1.829,0.287c0.011,0,0.022,0.001,0.033,0.001
			c0.249,0,0.459-0.193,0.477-0.445C43.979,47.659,43.781,47.431,43.518,47.413z M29.85,20.098c0,2.199-0.672,3.848-1.705,5.134
			c0.748-2.112,0.635-4.527,0.208-6.082c-0.594-2.159-2.308-4.361-5.396-5.131c0.391-0.062,0.775-0.108,1.143-0.108
			C26.487,13.91,29.85,15.829,29.85,20.098z M18.543,43.087c-0.813-0.393-1.751-0.976-2.671-1.835
			c-0.788-0.737-1.405-1.243-2.013-1.514c0.611-0.48,1.053-1.14,1.053-1.973V19.042c0-1.433-0.15-3.552-0.887-5.323
			c1.338,1.232,2.322,2.89,2.322,5.323v18.724C16.348,38.786,16.601,41.022,18.543,43.087z M17.304,26.534v-7.492
			c0-1.667-0.418-3.014-1.074-4.121c1.185,0.258,2.448,0.07,3.714-0.222c5.661-0.308,7.162,3.523,7.487,4.704
			c0.657,2.39,0.392,6.494-2.215,8.251c-0.618,0.361-1.258,0.682-1.899,0.973c-1.422-0.623-2.814-1.067-4.077-1.46
			C18.554,26.954,17.907,26.751,17.304,26.534z M31.463,40.688c-1.841-4.229-4.871-8.302-7.926-10.91
			c1.713,0.82,3.44,1.949,4.994,3.674c2.447,2.717,3.533,4.958,4.491,6.936c0.699,1.444,1.36,2.808,2.436,4.081
			c0.97,1.147,2.124,1.952,3.221,2.519C35.506,46.928,33.338,44.997,31.463,40.688z"/>
	</g>
</g>
</svg>
