<?xml version="1.0" encoding="utf-8"?>
<!-- Generator: Adobe Illustrator 16.0.0, SVG Export Plug-In . SVG Version: 6.00 Build 0)  -->
<!DOCTYPE svg PUBLIC "-//W3C//DTD SVG 1.1//EN" "http://www.w3.org/Graphics/SVG/1.1/DTD/svg11.dtd">
<svg version="1.1" id="Layer_1" xmlns="http://www.w3.org/2000/svg" xmlns:xlink="http://www.w3.org/1999/xlink" x="0px" y="0px"
	 width="272.521px" height="59.139px" viewBox="0 0 272.521 59.139" enable-background="new 0 0 272.521 59.139"
	 xml:space="preserve">
<g>
	<path fill="#7E84C0" d="M70.402,37.381c-0.361-0.219-0.83-0.103-1.048,0.259c-0.872,1.443-2.558,3.154-5.622,3.198
		c-5.628-1.932-8.355-6.536-7.882-13.33c0.541-7.756,4.795-11.256,7.522-11.716c0.022-0.004,0.04-0.018,0.062-0.023
		c1.419-0.037,2.874,0.186,4.301,0.698c-0.398,1.14-1.064,3.452-0.967,5.957c0.016,0.421,0.367,0.755,0.792,0.732
		c0.421-0.016,0.75-0.371,0.733-0.792c-0.121-3.109,1.112-6,1.125-6.028c0.081-0.187,0.084-0.398,0.008-0.587
		c-0.075-0.189-0.223-0.34-0.41-0.42c-3.776-1.604-7.841-1.459-11.149,0.399c-3.535,1.984-5.858,5.638-6.543,10.286
		c-0.681,4.624,0.419,8.878,3.097,11.979c2.366,2.741,5.803,4.378,9.191,4.38c0.002,0,0.003,0,0.005,0
		c0.001,0,0.003-0.001,0.005-0.001c3.005-0.001,5.505-1.401,7.039-3.943C70.879,38.068,70.763,37.599,70.402,37.381z M55.576,36.996
		c-1.686-1.951-3.529-5.402-2.741-10.758c0.571-3.879,2.399-6.952,5.155-8.771c-1.797,2.055-3.335,5.231-3.663,9.936
		c-0.346,4.968,0.874,8.884,3.546,11.608C57.034,38.449,56.253,37.78,55.576,36.996z"/>
	<path fill="#7E84C0" d="M92.917,24.23c-1.08-3.324-2.304-7.092-7.417-9.295c-0.034-0.015-0.07-0.013-0.105-0.022
		c-0.896-0.424-1.896-0.652-3.007-0.652c-1.352,0-2.546,0.326-3.578,0.954c-4.609,2.232-5.787,5.826-6.823,9.016
		c-0.446,1.376-0.868,2.675-1.537,3.719c-0.163,0.255-0.16,0.582,0.008,0.835c0.673,1.009,1.098,2.316,1.548,3.7
		c1.03,3.168,2.312,7.11,7.398,9.302c0.031,0.014,0.064,0.012,0.097,0.021c0.953,0.424,1.943,0.583,2.888,0.583
		c0.914,0,1.872-0.151,2.797-0.543c0.005,0,0.009,0.002,0.014,0.002c0.101,0,0.203-0.02,0.302-0.062
		c5.086-2.191,6.368-6.134,7.398-9.302c0.45-1.384,0.875-2.691,1.548-3.7c0.168-0.253,0.171-0.58,0.007-0.835
		C93.785,26.905,93.363,25.606,92.917,24.23z M71.987,28.353c0.625-1.106,1.028-2.347,1.452-3.651
		c0.465-1.432,0.939-2.884,1.732-4.225c-0.649,2.076-0.992,4.637-0.992,7.674c0,3.465,0.395,6.106,1.036,8.134
		c-0.806-1.354-1.288-2.824-1.759-4.273C73.029,30.696,72.622,29.445,71.987,28.353z M75.707,28.151c0-4.517,0.75-9.72,3.882-11.616
		c0.139-0.066,0.272-0.135,0.418-0.197c0.035-0.016,0.058-0.043,0.089-0.062c0.668-0.306,1.42-0.489,2.292-0.489
		c5.542,0,6.705,6.724,6.705,12.364c0,5.799-1.163,12.712-6.705,12.712C76.865,40.863,75.707,33.95,75.707,28.151z M91.446,32.011
		c-0.511,1.571-1.032,3.169-1.967,4.615c0.708-2.065,1.141-4.821,1.141-8.476c0-3.216-0.383-5.903-1.112-8.039
		c0.932,1.439,1.449,3.027,1.957,4.59c0.424,1.305,0.826,2.545,1.451,3.651C92.281,29.445,91.875,30.696,91.446,32.011z"/>
	<path fill="#7E84C0" d="M42.723,13.127c1.693,0,3.071-1.378,3.071-3.071c0-1.694-1.378-3.071-3.071-3.071s-3.071,1.377-3.071,3.071
		C39.651,11.75,41.029,13.127,42.723,13.127z M42.723,8.511c0.852,0,1.545,0.693,1.545,1.545s-0.693,1.545-1.545,1.545
		s-1.545-0.693-1.545-1.545S41.871,8.511,42.723,8.511z"/>
	<path fill="#7E84C0" d="M173.684,41.657c-0.386-0.168-0.837,0.005-1.007,0.391c-2.067,4.688-7.159,9.688-15.258,9.777
		c-10.626-3.447-16.721-12.146-16.721-23.893c0-9.992,3.761-17.637,11.173-22.728c2.021-0.603,4.021-0.902,5.859-0.948
		c0.021,0.002,0.039,0.013,0.061,0.013c2.575,0,4.635,0.895,5.957,2.588c1.339,1.715,1.793,4.117,1.215,6.429
		c-0.835,3.34-2.65,4.113-3.248,4.281c-1.373-0.618-2.621-1.944-2.918-4.318c-0.053-0.418-0.435-0.722-0.853-0.662
		c-0.418,0.052-0.715,0.434-0.663,0.852c0.372,2.974,2.045,4.794,3.972,5.602c0.04,0.021,0.078,0.039,0.121,0.053
		c0.679,0.268,1.386,0.413,2.076,0.437c2.624,0.104,5.781-1.561,6.535-5.402c0.569-2.904-0.001-5.498-1.648-7.501
		c-2.073-2.519-5.666-3.906-10.117-3.906c-9.615,0-23.921,6.743-23.921,25.32c0,16.446,11.801,25.32,22.903,25.32
		c0.028,0,0.056-0.004,0.084-0.004c0.008,0.001,0.016,0.004,0.023,0.004c0.014,0,0.025-0.005,0.039-0.006
		c8.874-0.062,14.457-5.548,16.726-10.69C174.244,42.278,174.069,41.828,173.684,41.657z M167.158,7.596
		c1.348,1.638,1.807,3.795,1.328,6.236c-0.536,2.736-2.549,4.021-4.472,4.149c0.915-0.788,1.875-2.109,2.43-4.326
		c0.69-2.764,0.133-5.656-1.493-7.738c-0.063-0.082-0.143-0.166-0.213-0.249C165.702,6.182,166.523,6.824,167.158,7.596z
		 M135.826,28.04c0-10.781,5.109-17.317,11.137-20.742c-5.172,5.187-7.791,12.103-7.791,20.635c0,10.491,4.61,18.681,12.813,23.196
		C143.454,48.829,135.826,40.9,135.826,28.04z"/>
	<path fill="#7E84C0" d="M188.035,40.88c-0.411-0.114-0.817-0.211-1.221-0.29c-0.631-0.298-1.033-0.764-1.175-0.947L179.034,17.7
		c0.084-0.77,0.413-2.234,1.033-2.653c0.219-0.146,0.337-0.388,0.337-0.633c0.001-0.146-0.042-0.296-0.13-0.427
		c-0.235-0.35-0.71-0.442-1.06-0.206c-1.77,1.192-3.17,1.355-4.408,0.512c-0.332-0.228-0.782-0.155-1.03,0.162
		c-0.247,0.317-0.205,0.773,0.095,1.041c0.062,0.055,1.361,1.234,1.141,2.727c-0.004,0.019-0.006,0.037-0.009,0.057
		c-0.028,0.164-0.075,0.333-0.146,0.504c-0.953,2.341-5.845,13.322-7.667,17.09c-2.669,5.516-4.805,6.525-8.05,6.525
		c-0.422,0-0.764,0.342-0.764,0.763c0,0.422,0.342,0.764,0.764,0.764c4.319,0,6.785-1.933,9.424-7.387
		c0.272-0.562,0.615-1.291,1-2.12c0.01,0.001,0.018,0.006,0.027,0.006h10.164l1.625,5.443c-0.243,0.357-0.638,0.879-0.984,1.139
		c-0.299,0.224-0.392,0.632-0.219,0.964c0.173,0.331,0.561,0.489,0.915,0.372c1.621-0.534,3.39-0.628,5.273-0.282
		c0.416,0.173,0.893,0.295,1.429,0.319c0.39,0.015,0.727-0.259,0.788-0.642C188.645,41.353,188.408,40.985,188.035,40.88z
		 M170.265,32.897c1.82-3.975,4.212-9.347,5.413-12.135l3.623,12.135H170.265z M182.854,40.403c0.005-0.008,0.01-0.015,0.013-0.021
		c0.111-0.184,0.141-0.407,0.079-0.614l-6.402-21.446c0.088-0.734-0.05-1.405-0.277-1.978c0.487,0.02,0.993-0.043,1.513-0.188
		c-0.209,0.762-0.269,1.422-0.28,1.562c-0.007,0.094,0.004,0.188,0.031,0.279l6.686,22.209c0.013,0.042,0.028,0.083,0.048,0.121
		C183.787,40.33,183.316,40.35,182.854,40.403z"/>
	<path fill="#7E84C0" d="M199.718,26.363c-4.357-3.127-5.95-4.388-6.713-6.257c-0.562-1.377-0.203-3.421,1.203-4.343
		c0.724-0.184,1.479-0.268,2.186-0.268c2.553,0,4.63,2.122,4.63,4.729c0,0.422,0.342,0.764,0.764,0.764
		c0.421,0,0.763-0.342,0.763-0.764c0-3.449-2.762-6.256-6.156-6.256c-3.862,0-6.674,1.844-7.165,4.697
		c-0.593,3.451,0.992,5.94,6.056,9.516c4.45,3.143,7.313,5.832,6.823,8.745c-0.23,1.368-1.115,2.472-2.559,3.191
		c-1.972,0.982-4.525,1.018-6.355,0.087c-0.042-0.021-0.075-0.047-0.117-0.068c-1.391-1.97-0.521-4.025-0.067-4.837
		c0.753-1.344,1.844-2.1,2.527-2.089c0.39,0.161,0.714,0.383,0.916,0.655c0.25,0.339,0.729,0.409,1.067,0.158
		s0.41-0.729,0.159-1.067c-0.361-0.487-0.903-0.87-1.538-1.138c-0.08-0.053-0.17-0.089-0.27-0.108
		c-0.813-0.287-1.756-0.388-2.687-0.244c-1.878,0.292-3.296,1.457-3.891,3.196c-0.919,2.688,0.088,5.066,2.727,6.616
		c0.108,0.134,0.256,0.206,0.411,0.244c0.025,0.014,0.045,0.029,0.069,0.042c1.11,0.564,2.401,0.847,3.713,0.847
		c1.377,0,2.777-0.31,4.017-0.928c1.223-0.609,2.153-1.478,2.742-2.518c0.003-0.005,0.01-0.007,0.013-0.013
		C205.967,34.199,204.897,30.08,199.718,26.363z M190.739,35.158c0.406-1.19,1.247-1.741,1.968-1.999
		c-0.382,0.403-0.735,0.868-1.031,1.396c-0.637,1.138-0.925,2.326-0.875,3.468C190.396,37.182,190.374,36.225,190.739,35.158z
		 M196.164,26.935c-5.103-3.604-5.845-5.595-5.43-8.01c0.099-0.579,0.331-1.068,0.651-1.485c-0.26,1.116-0.183,2.293,0.205,3.243
		c0.957,2.344,2.91,3.815,7.236,6.92c2.766,1.984,4.162,3.973,4.254,6.145C201.858,31.155,198.964,28.912,196.164,26.935z"/>
	<path fill="#7E84C0" d="M220.768,32.346c-0.396-0.147-0.835,0.054-0.982,0.448c-0.147,0.396,0.053,0.835,0.447,0.982
		c0.314,0.117,0.59,0.24,0.846,0.365c0.257,0.878,0.122,2.411-0.669,3.808c-0.562,0.991-1.64,2.224-3.583,2.495
		c-0.979-0.228-1.871-0.609-2.706-0.969c-0.508-0.219-0.999-0.424-1.479-0.584V27.929c0.78-0.301,1.196-0.145,1.868,0.113
		c0.363,0.14,0.774,0.298,1.287,0.396c0.206,0.039,0.405,0.058,0.598,0.058c1.617-0.001,2.706-1.255,2.757-1.314
		c0.272-0.32,0.233-0.797-0.084-1.071s-0.799-0.239-1.075,0.077c-0.009,0.01-0.849,0.96-1.907,0.751
		c-0.38-0.072-0.694-0.193-1.027-0.321c-0.655-0.253-1.378-0.527-2.416-0.281V16.25c1.739-0.028,3.015-0.145,5.03-0.379
		c1.767-0.204,2.816,0.004,3.362,0.193c-0.33,0.83-0.725,2.381-0.692,5.019c0.005,0.421,0.355,0.729,0.772,0.754
		c0.422-0.005,0.759-0.352,0.754-0.772c-0.044-3.642,0.782-4.844,0.78-4.844c0.246-0.309,0.217-0.753-0.068-1.026
		c-0.136-0.131-1.434-1.265-5.085-0.84c-2.28,0.266-3.581,0.376-5.738,0.376c-0.821,0-2.037-0.118-3.214-0.233
		c-1.532-0.149-2.98-0.29-3.789-0.204c-0.403,0.044-0.703,0.395-0.682,0.8s0.356,0.723,0.763,0.723c2.185,0,3.363,1.133,3.732,1.563
		v21.509c-0.959,0.326-1.857,0.911-2.818,1.811c-0.308,0.288-0.323,0.771-0.035,1.079c0.288,0.307,0.771,0.323,1.079,0.035
		c1.549-1.449,2.702-1.87,4.569-1.669c0.598,0.064,1.318,0.375,2.154,0.734c1.376,0.593,3.017,1.299,4.998,1.299
		c0.539,0,1.103-0.053,1.692-0.173c2.411-0.493,4.09-1.966,4.492-3.939C225.232,35.445,223.909,33.521,220.768,32.346z
		 M210.095,38.592V17.119c0-0.15-0.045-0.297-0.128-0.423c-0.02-0.029-0.18-0.264-0.489-0.575c0.58,0.053,1.138,0.097,1.638,0.119
		v22.359C210.762,38.576,210.421,38.572,210.095,38.592z M223.203,37.76c-0.249,1.221-1.281,2.172-2.795,2.616
		c0.513-0.47,0.963-1.027,1.33-1.674c0.593-1.048,0.924-2.25,0.975-3.352C223.37,36.167,223.354,37.022,223.203,37.76z"/>
	<path fill="#7E84C0" d="M272.4,27.949c-0.668-1.044-1.09-2.343-1.537-3.719c-1.079-3.324-2.303-7.092-7.416-9.295
		c-0.034-0.015-0.07-0.013-0.105-0.022c-0.896-0.424-1.896-0.652-3.007-0.652c-1.352,0-2.546,0.326-3.578,0.954
		c-4.609,2.232-5.787,5.826-6.823,9.016c-0.446,1.376-0.868,2.675-1.537,3.719c-0.163,0.255-0.16,0.582,0.008,0.835
		c0.673,1.009,1.098,2.316,1.548,3.7c1.03,3.168,2.312,7.11,7.398,9.302c0.031,0.014,0.064,0.012,0.097,0.021
		c0.953,0.424,1.943,0.583,2.888,0.583c0.915,0,1.872-0.151,2.797-0.543c0.005,0,0.009,0.002,0.014,0.002
		c0.102,0,0.204-0.02,0.302-0.062c5.086-2.191,6.368-6.134,7.398-9.302c0.45-1.384,0.875-2.691,1.548-3.7
		C272.562,28.531,272.564,28.204,272.4,27.949z M249.935,28.353c0.625-1.106,1.028-2.347,1.451-3.651
		c0.465-1.432,0.94-2.884,1.732-4.225c-0.648,2.076-0.991,4.637-0.991,7.674c0,3.465,0.395,6.106,1.036,8.134
		c-0.806-1.354-1.288-2.824-1.759-4.273C250.977,30.696,250.569,29.445,249.935,28.353z M253.654,28.151
		c0-4.517,0.75-9.72,3.882-11.616c0.139-0.066,0.272-0.135,0.418-0.197c0.035-0.016,0.058-0.043,0.089-0.062
		c0.668-0.306,1.42-0.489,2.292-0.489c5.542,0,6.705,6.724,6.705,12.364c0,5.799-1.163,12.712-6.705,12.712
		C254.812,40.863,253.654,33.95,253.654,28.151z M269.394,32.011c-0.511,1.571-1.032,3.169-1.967,4.615
		c0.707-2.065,1.141-4.821,1.141-8.476c0-3.216-0.383-5.903-1.112-8.039c0.932,1.439,1.449,3.027,1.957,4.59
		c0.423,1.305,0.826,2.545,1.451,3.651C270.229,29.445,269.822,30.696,269.394,32.011z"/>
	<path fill="#7E84C0" d="M252.797,43.818c-0.1,0.013-2.419,0.236-4.355-2.482c-0.002-0.002-0.003-0.005-0.005-0.007
		c-0.029-0.041-0.059-0.076-0.088-0.118c-0.689-1.008-1.106-2.106-1.589-3.379c-0.612-1.611-1.306-3.439-2.75-5.708
		c-1.021-1.604-2.5-2.931-4.453-4.003c0.001,0,0.001,0,0.002,0c0.009-0.003,0.018-0.008,0.027-0.01
		c2.118-0.864,3.762-2.336,4.477-4.105c0.77-1.907,0.653-4.31-0.303-6.271c-0.812-1.665-2.125-2.831-3.697-3.283
		c-1.363-0.392-3.303-0.062-5.179,0.259c-1.065,0.182-2.071,0.354-2.79,0.354c-1.256,0-2.395-0.206-3.599-0.424
		c-0.675-0.122-1.366-0.247-2.108-0.344c-0.411-0.059-0.789,0.229-0.853,0.639c-0.064,0.409,0.21,0.795,0.617,0.869
		c2.411,0.438,2.986,2.184,3.076,2.524v19.57c0,1.072-1.058,2.287-2.046,2.409c-0.067,0.003-0.135,0.007-0.204,0.011
		c-0.412,0.024-0.73,0.372-0.719,0.784c0.013,0.413,0.351,0.741,0.764,0.741c0.093,0,0.187-0.004,0.279-0.014
		c2.214-0.111,3.733,0.065,6.916,1.284c0.089,0.034,0.181,0.051,0.272,0.051c0.283,0,0.553-0.159,0.686-0.427
		c0.174-0.354,0.049-0.783-0.287-0.988c-1.677-1.024-1.668-2.513-1.666-2.599V27.446c0.348,0.08,0.703,0.157,1.033,0.246
		c3.393,1.23,5.053,4.105,6.588,7.195c0.355,0.715,0.654,1.419,0.944,2.101c1.11,2.613,2.169,5.08,5.639,5.546
		c1.968,2.542,4.279,2.818,5.181,2.818c0.221,0,0.357-0.017,0.383-0.02c0.416-0.055,0.706-0.435,0.654-0.85
		C253.594,44.067,253.213,43.771,252.797,43.818z M239.641,15.919c1.151,0.331,2.127,1.213,2.747,2.484
		c0.772,1.584,0.871,3.512,0.259,5.03c-0.111,0.274-0.264,0.539-0.437,0.797c0.287-1.713-0.028-3.542-0.542-4.842
		c-0.635-1.606-1.822-2.803-3.095-3.586C238.978,15.803,239.346,15.834,239.641,15.919z M229.828,40.352
		c0.565-0.7,0.927-1.573,0.927-2.453V18.242c0-0.048-0.005-0.096-0.014-0.143c-0.012-0.062-0.167-0.827-0.765-1.665
		c0.556,0.077,1.121,0.133,1.72,0.15v22.536c-0.002,0.054-0.022,0.774,0.362,1.663C231.243,40.563,230.524,40.427,229.828,40.352z
		 M233.223,16.512c0.562-0.067,1.176-0.171,1.809-0.278c1.282-0.087,4.185,1.105,5.217,3.716c0.739,1.871,1.05,5.337-1.225,6.742
		c-0.483,0.2-0.997,0.358-1.529,0.477c-0.852-0.341-1.754-0.654-2.744-0.924h-0.002l0,0c-0.487-0.133-1.005-0.25-1.525-0.366V16.512
		z M243.193,36.39c-0.299-0.701-0.606-1.428-0.981-2.183c-0.725-1.458-1.52-2.916-2.519-4.218c1.289,0.84,2.306,1.816,3.029,2.953
		c1.359,2.138,2.023,3.887,2.609,5.431c0.299,0.787,0.596,1.543,0.951,2.276C244.721,39.949,244.066,38.444,243.193,36.39z"/>
	<path fill="#7E84C0" d="M125.572,14.273c-0.08,0.015-1.474,0.286-2.841,1.157c-1.426-1.318-3.77-1.175-3.882-1.168
		c-0.42,0.029-0.735,0.393-0.707,0.812s0.386,0.733,0.812,0.711c0.507-0.033,1.766,0.048,2.562,0.632
		c-0.082,0.086-0.163,0.172-0.241,0.265c-1.05,1.246-3.76,5.548-5.264,7.972c-1.772-2.357-5.15-6.617-6.218-7.91
		c0-0.255,0.061-0.792,0.472-1.489c0.195-0.33,0.114-0.755-0.189-0.99c-0.303-0.236-0.734-0.21-1.007,0.062
		c-1.104,1.101-3.469,0.635-5.368,0.261c-0.547-0.107-1.068-0.213-1.552-0.279c-0.037-0.006-0.073-0.01-0.11-0.015
		c-0.127-0.016-0.253-0.028-0.373-0.036s-0.237-0.01-0.354-0.011c-0.024,0-0.052-0.004-0.076-0.003
		c-0.001,0-0.002,0.001-0.003,0.001c-0.951,0.002-1.78,0.211-2.324,0.454c-0.386,0.172-0.559,0.623-0.386,1.008
		c0.172,0.386,0.623,0.558,1.008,0.387c0.016-0.007,0.761-0.327,1.791-0.318c0.252,0.005,0.55,0.037,0.885,0.09
		c0.873,0.177,1.84,0.642,2.711,1.676c1.6,1.899,6.342,8.236,7.251,9.453l0.004,12.184c-0.004,0.035-0.376,3.625-2.548,5.39
		c-0.312,0.254-0.374,0.707-0.141,1.035c0.148,0.209,0.384,0.321,0.623,0.321c0.138,0,0.276-0.038,0.401-0.115
		c0.784-0.486,1.455-0.99,2.048-1.435c1.84-1.382,3.057-2.292,5.919-1.549c0.393,0.1,0.796-0.12,0.92-0.506
		c0.123-0.387-0.076-0.802-0.454-0.946c-2.461-0.94-2.553-2.378-2.556-2.422V26.955c0.729-1.188,4.797-7.792,6.058-9.289
		c1.233-1.465,3.387-1.888,3.409-1.892c0.413-0.078,0.687-0.477,0.608-0.891C126.384,14.469,125.986,14.197,125.572,14.273z
		 M112.995,42.18c0.56-1.501,0.689-2.797,0.701-2.932v-12.51c0-0.164-0.054-0.324-0.151-0.456c-0.23-0.31-5.667-7.599-7.459-9.727
		c-0.017-0.021-0.035-0.037-0.053-0.057c0.775,0.066,1.545,0.06,2.253-0.103c-0.046,0.456,0.008,0.751,0.021,0.811
		c0.026,0.122,0.082,0.236,0.163,0.332c0.895,1.062,4.993,6.227,6.679,8.511c-0.09,0.148-0.159,0.261-0.178,0.291
		c-0.073,0.119-0.111,0.257-0.111,0.397V38.95c0,0.064,0.016,1.065,0.932,2.13C114.704,41.22,113.828,41.639,112.995,42.18z"/>
	<path fill="#7E84C0" d="M46.335,40.103c-0.014-0.001-0.026-0.004-0.04-0.005c-0.029-0.003-0.056,0.009-0.085,0.01
		c-0.192,0.012-0.37,0.011-0.567,0.025c-0.051,0.004-0.102,0.008-0.151,0.012c-0.567-0.435-0.866-0.986-0.972-1.211V18.505
		c0.229-0.17,0.619-0.418,1.116-0.578c0.071-0.018,0.142-0.037,0.213-0.059l0.868-0.107c0.4-0.05,0.693-0.402,0.669-0.805
		c-0.025-0.402-0.358-0.716-0.763-0.716c-0.513,0-0.982,0.086-1.399,0.215c-1.577,0.372-3.584-0.332-5.212-0.902
		c-1.473-0.517-2.636-0.925-3.523-0.65c-0.344,0.105-0.567,0.438-0.536,0.797c0.032,0.358,0.311,0.646,0.669,0.69
		c2.165,0.264,3.428,1.547,3.825,2.019v21.077c-0.155,0.292-0.662,1.085-1.701,1.393c-0.375,0.11-0.605,0.486-0.535,0.87
		c0.071,0.384,0.421,0.649,0.811,0.623c1.387-0.109,2.416-0.238,3.412-0.363c1.022-0.128,1.988-0.249,3.327-0.353
		c0.179-0.014,0.337-0.014,0.511-0.023c4.893,0.429,7.166,4.066,7.622,7.07c0.454,2.978-0.635,6.596-4.073,8.004
		c-1.696,0.027-3.47-0.35-5.185-1.158c-5.243-2.474-6.637-5.462-8.563-9.599c-1.479-3.173-3.155-6.769-6.971-11.004
		c-2.411-2.677-5.045-4.499-7.667-5.843c0.618-0.304,1.233-0.621,1.837-0.966c0.026-0.013,0.054-0.02,0.079-0.035
		c0.031-0.021,0.058-0.045,0.088-0.065c4.42-2.564,8.16-6.394,8.16-13.396c0-7.868-6.263-11.407-10.71-11.407
		c-1.741,0-3.609,0.468-5.415,0.92c-3.434,0.859-6.677,1.672-9.182-0.38c-0.012-0.009-0.025-0.011-0.037-0.02
		c-1.492-1.485-3.238-2.614-4.89-3.529C1.283,0.177,1.2,0.131,1.116,0.087C0.745-0.108,0.287,0.035,0.09,0.405
		c-0.197,0.369-0.06,0.829,0.308,1.029l0.215,0.118c3.547,2.06,4.076,8.028,4.076,11.403v29.901c0,1.936-2.691,2.819-2.998,2.914
		c-0.389,0.12-0.615,0.522-0.516,0.917c0.101,0.394,0.491,0.644,0.89,0.562c0.29-0.059,0.543-0.086,0.771-0.086
		c1.006,0,1.945,0.577,3.871,2.377c4.257,3.98,8.717,4.555,8.904,4.577c0.031,0.004,0.062,0.006,0.092,0.006
		c0.004,0,0.007,0,0.011,0c0.435,0.04,0.772-0.339,0.772-0.764c0-0.318-0.195-0.592-0.474-0.706
		c-5.393-3.392-5.978-7.976-5.978-9.797V26.533c0.841,0.289,1.713,0.569,2.641,0.857c0.151,0.047,0.308,0.096,0.462,0.144
		c0.036,0.022,0.066,0.053,0.108,0.069c6.197,2.366,13.936,11.193,18.002,20.532c3.279,7.532,7.275,11.004,13.104,11.004
		c1.729,0,3.625-0.313,5.707-0.909c1.511-0.052,2.972-0.382,4.299-1.021c2.372-1.142,4.051-3.135,4.604-5.469
		c0.532-2.244,0.272-5.555-2.056-8.117C54.432,40.898,51.229,39.84,46.335,40.103z M42.242,40.494
		c-0.223,0.028-0.447,0.056-0.677,0.084c0.235-0.349,0.343-0.611,0.354-0.64c0.036-0.089,0.054-0.185,0.054-0.28V18.147
		c0-0.144-0.041-0.284-0.117-0.406c0.381,0.099,0.768,0.183,1.155,0.243c-0.012,0.053-0.018,0.107-0.018,0.163v20.941
		c0,0.088,0.015,0.174,0.044,0.256c0.011,0.031,0.168,0.463,0.541,0.987C43.11,40.385,42.673,40.44,42.242,40.494z M30.071,14.64
		c0,3.512-1.073,6.145-2.724,8.199c1.195-3.374,1.016-7.23,0.332-9.713c-0.946-3.442-3.673-6.969-8.593-8.198
		c0.616-0.098,1.222-0.169,1.801-0.169C24.701,4.759,30.071,7.825,30.071,14.64z M12.014,51.355
		c-1.299-0.627-2.797-1.558-4.264-2.93c-1.26-1.177-2.245-1.985-3.216-2.418c0.976-0.768,1.681-1.819,1.681-3.15V12.956
		c0-2.288-0.239-5.673-1.415-8.502c2.137,1.968,3.709,4.615,3.709,8.502v29.901C8.509,44.488,8.913,48.058,12.014,51.355z
		 M10.035,24.919V12.956c0-2.647-0.659-4.789-1.697-6.551c1.891,0.403,3.909,0.08,5.926-0.387c9.036-0.479,11.427,5.63,11.944,7.514
		c1.05,3.815,0.625,10.371-3.536,13.177c-0.982,0.575-2,1.084-3.019,1.548c-2.276-0.999-4.504-1.696-6.524-2.324
		C12.028,25.59,10.994,25.264,10.035,24.919z M32.648,47.526c-2.944-6.762-7.791-13.272-12.676-17.438
		c2.741,1.311,5.507,3.12,7.994,5.88c3.662,4.064,5.287,7.551,6.721,10.627c1.906,4.092,3.553,7.625,9.296,10.334
		c0.517,0.243,1.038,0.445,1.562,0.622C39.682,58.015,35.876,54.94,32.648,47.526z M57.477,51.388
		c-0.447,1.885-1.825,3.505-3.781,4.446c-0.087,0.041-0.18,0.069-0.268,0.108c1.647-1.909,2.413-4.593,1.975-7.471
		c-0.336-2.212-1.506-4.714-3.731-6.411c1.643,0.479,2.956,1.324,4.105,2.589C57.705,46.773,57.919,49.523,57.477,51.388z"/>
</g>
</svg>
